<svg xmlns="http://www.w3.org/2000/svg" viewBox="3940.175 -4796 30.906 38.08">
  <defs>
    <style>
      .cls-1 {
        fill: #fff;
      }
    </style>
  </defs>
  <path id="Path_392" data-name="Path 392" class="cls-1" d="M1006.343,284.708a1.289,1.289,0,1,0-.659,2.493,3.5,3.5,0,1,1-4.4,3.387,3.394,3.394,0,0,1,.894-2.328,1.308,1.308,0,0,0,.094-1.6c-.447-2.258-3.222-3.975-6.7-3.975a9.219,9.219,0,0,0-4.022.87,6.525,6.525,0,0,1,4.939-4.7c6.75-1.693,7.5-7.056,6.962-9.69h0c0-.024-.023-.024-.023-.047-.024-.071-.024-.141-.071-.188-.023-.023-.023-.071-.047-.094a.512.512,0,0,0-.071-.118.324.324,0,0,0-.07-.094c-.024-.024-.047-.071-.071-.094s-.071-.047-.094-.071-.071-.047-.094-.071c-.047-.023-.071-.047-.118-.071s-.071-.047-.118-.047a1.5,1.5,0,0,0-.165-.047c-.023,0-.047-.024-.071-.024a.965.965,0,0,0-.259-.023,3.5,3.5,0,1,1,3.528-3.5,3.455,3.455,0,0,1-.423,1.67,1.289,1.289,0,0,0,.517,1.764,1.309,1.309,0,0,0,1.764-.517,6.21,6.21,0,0,0,.729-2.893,6.092,6.092,0,1,0-7.268,5.974c0,1.552-.588,4.586-5.127,5.739-6.7,1.67-7.668,8.256-7.244,11.478a1.107,1.107,0,0,0,.259.612,3.424,3.424,0,0,1,.706,2.117,3.5,3.5,0,1,1-3.5-3.5,1.305,1.305,0,0,0,1.294-1.294V269.49a1.305,1.305,0,0,0-1.294-1.294,3.475,3.475,0,1,1,2.94-1.576,1.292,1.292,0,1,0,2.164,1.411,6.122,6.122,0,1,0-6.421,2.587v14.018a6.091,6.091,0,1,0,7.385,5.951,6.02,6.02,0,0,0-.823-3.058.726.726,0,0,0,.023-.235c0-.823,1.623-2,4.187-2,2.446,0,4.045,1.082,4.187,1.905a5.987,5.987,0,0,0-1.035,3.387,6.092,6.092,0,1,0,7.621-5.88Z" transform="translate(2960.175 -5054.6)"/>
</svg>
